<svg xmlns="http://www.w3.org/2000/svg" xmlns:xlink="http://www.w3.org/1999/xlink" width="170" height="108" viewBox="0 0 170 108">
  <defs>
    <rect id="background-6-a" width="170" height="108" x="0" y="0" rx="22"/>
  </defs>
  <g fill="none" fill-rule="evenodd">
    <mask id="background-6-b" fill="#fff">
      <use xlink:href="#background-6-a"/>
    </mask>
    <path fill="#FFF" fill-opacity=".25" d="M-17,38.0089997 C-5.29561994,62.6421443 5.0377134,76.4724777 14,79.5 C27.4434299,84.0412834 29.778352,64.2060277 55.5,62.5 C81.221648,60.7939723 79.7665779,82.4530709 112,73 C144.233422,63.5469291 149.065907,39.3245954 159.5,32 C166.456062,27.1169364 175.789396,23.1169364 187.5,20 L187.5,116.5 L-17,116.5 L-17,38.0089997 Z" mask="url(#background-6-b)"/>
    <path fill="#FFF" fill-opacity=".15" d="M-17,71.3731725 L-17,113 L-93,113 L-93,29.5 C-90.4138554,22.6162741 -80.580522,24.7829408 -63.5,36 C-37.8792169,52.8255889 -48.6173734,73.5 -26,73.5 C-22.6205408,73.5 -19.6651682,72.715544 -17,71.3731725 Z M-4.92048981,60.3683596 C3.18457583,50.1202894 10.4352631,37.3902703 25,36 C49.760478,33.6364998 59.2800066,59.6010009 84,63 C99.9048699,65.1869196 119.39882,62.0032659 142.481849,53.4490389 C136.026397,61.0368449 126.967121,68.6106038 112,73 C79.7665779,82.4530709 81.221648,60.7939723 55.5,62.5 C29.778352,64.2060277 27.4434299,84.0412834 14,79.5 C8.25629016,77.5597352 1.94946208,71.1825246 -4.92048422,60.3683684 L-4.92048981,60.3683596 Z" mask="url(#background-6-b)"/>
  </g>
</svg>
