<svg id="Capa_1" data-name="Capa 1" xmlns="http://www.w3.org/2000/svg" viewBox="0 0 469.33 469.33"><title>brownnoise</title><path d="M10.67,298.67A10.67,10.67,0,0,1,0,288V181.33a10.67,10.67,0,0,1,21.33,0V288A10.67,10.67,0,0,1,10.67,298.67Z" transform="translate(0 0)" style="fill:#f44336"/><path d="M74.67,384A10.67,10.67,0,0,1,64,373.33V96a10.67,10.67,0,1,1,21.33,0V373.33A10.67,10.67,0,0,1,74.67,384Z" transform="translate(0 0)" style="fill:#f44336"/><path d="M138.67,469.33A10.67,10.67,0,0,1,128,458.67v-448a10.67,10.67,0,1,1,21.33,0v448A10.66,10.66,0,0,1,138.67,469.33Z" transform="translate(0 0)" style="fill:#f44336"/><path d="M202.67,448A10.67,10.67,0,0,1,192,437.33V32a10.67,10.67,0,1,1,21.33,0V437.33A10.67,10.67,0,0,1,202.67,448Z" transform="translate(0 0)" style="fill:#f44336"/><path d="M266.67,362.67A10.67,10.67,0,0,1,256,352V117.33a10.67,10.67,0,0,1,21.33,0V352A10.67,10.67,0,0,1,266.67,362.67Z" transform="translate(0 0)" style="fill:#f44336"/><path d="M330.67,448A10.67,10.67,0,0,1,320,437.33V32a10.67,10.67,0,1,1,21.33,0V437.33A10.67,10.67,0,0,1,330.67,448Z" transform="translate(0 0)" style="fill:#f44336"/><path d="M394.67,362.67A10.67,10.67,0,0,1,384,352V117.33a10.67,10.67,0,0,1,21.33,0V352A10.67,10.67,0,0,1,394.67,362.67Z" transform="translate(0 0)" style="fill:#f44336"/><path d="M458.67,298.67A10.67,10.67,0,0,1,448,288V181.33a10.67,10.67,0,0,1,21.33,0V288A10.67,10.67,0,0,1,458.67,298.67Z" transform="translate(0 0)" style="fill:#f44336"/><path d="M10.67,298.67A10.67,10.67,0,0,1,0,288V181.33a10.67,10.67,0,0,1,21.33,0V288A10.67,10.67,0,0,1,10.67,298.67Z" transform="translate(0 0)"/><path d="M74.67,384A10.67,10.67,0,0,1,64,373.33V96a10.67,10.67,0,1,1,21.33,0V373.33A10.67,10.67,0,0,1,74.67,384Z" transform="translate(0 0)"/><path d="M138.67,469.33A10.67,10.67,0,0,1,128,458.67v-448a10.67,10.67,0,1,1,21.33,0v448A10.66,10.66,0,0,1,138.67,469.33Z" transform="translate(0 0)"/><path d="M202.67,448A10.67,10.67,0,0,1,192,437.33V32a10.67,10.67,0,1,1,21.33,0V437.33A10.67,10.67,0,0,1,202.67,448Z" transform="translate(0 0)"/><path d="M266.67,362.67A10.67,10.67,0,0,1,256,352V117.33a10.67,10.67,0,0,1,21.33,0V352A10.67,10.67,0,0,1,266.67,362.67Z" transform="translate(0 0)"/><path d="M330.67,448A10.67,10.67,0,0,1,320,437.33V32a10.67,10.67,0,1,1,21.33,0V437.33A10.67,10.67,0,0,1,330.67,448Z" transform="translate(0 0)"/><path d="M394.67,362.67A10.67,10.67,0,0,1,384,352V117.33a10.67,10.67,0,0,1,21.33,0V352A10.67,10.67,0,0,1,394.67,362.67Z" transform="translate(0 0)"/><path d="M458.67,298.67A10.67,10.67,0,0,1,448,288V181.33a10.67,10.67,0,0,1,21.33,0V288A10.67,10.67,0,0,1,458.67,298.67Z" transform="translate(0 0)"/><path d="M418,17.29h20.71a18.68,18.68,0,0,1,6.37,1.07,16.44,16.44,0,0,1,5.14,3,14.09,14.09,0,0,1,3.44,4.41,11.91,11.91,0,0,1,1.26,5.4,11.91,11.91,0,0,1-2,7.07,13.43,13.43,0,0,1-5.07,4.33v.59a14.51,14.51,0,0,1,6.55,4.62,12.25,12.25,0,0,1,2.48,7.81,13.32,13.32,0,0,1-1.37,6.1,14.11,14.11,0,0,1-3.74,4.63,17.27,17.27,0,0,1-5.51,3,21.58,21.58,0,0,1-6.77,1H418ZM438,38.9A7.26,7.26,0,0,0,443.34,37a6.24,6.24,0,0,0,0-8.91,6.89,6.89,0,0,0-5.11-1.85H428V38.9Zm1.11,22.2a8.1,8.1,0,0,0,5.78-1.89,6.37,6.37,0,0,0,2-4.84,6.55,6.55,0,0,0-2-4.93c-1.36-1.3-3.37-2-6-2H428V61.1Z" transform="translate(0 0)"/></svg>