<svg id="Layer_1" data-name="Layer 1" xmlns="http://www.w3.org/2000/svg" viewBox="0 0 512 512"><title>icon_dark</title><rect width="512" height="512"/><path d="M337.22,170.9C310,126,279.8,87.21,264.2,68.05a11,11,0,0,0-17.06,0c-15.6,19.16-45.83,58-73,102.87-35,57.83-52.79,105.63-52.79,142.09,0,74.07,60.26,134.34,134.33,134.34S390,387.08,390,313C390,276.53,372.25,228.72,337.22,170.9Zm-63.11,227a98.1,98.1,0,0,1-24.21,3c-50.19,0-91-37.93-91-84.55,0-11.25,3-24.4,8.82-39.08a5.76,5.76,0,0,1,6.59-3.3,5.31,5.31,0,0,1,4.35,5.65,85.77,85.77,0,0,0-.52,9.14c0,50.73,40.88,93.22,95.1,98.82a5.46,5.46,0,0,1,5,4.81A5.29,5.29,0,0,1,274.11,397.87Z" style="fill:#fff"/></svg>