<svg viewBox="0 -63 512 512" xmlns="http://www.w3.org/2000/svg"><path d="m85.777344 370.636719h-56.269532c-8 0-14.507812-6.507813-14.507812-14.507813v-172.5625c0-8 6.507812-14.511718 14.507812-14.511718h386.164063c4.140625 0 7.5-3.359376 7.5-7.5 0-4.140626-3.359375-7.5-7.5-7.5h-386.164063c-16.269531 0-29.507812 13.238281-29.507812 29.511718v172.5625c0 16.269532 13.238281 29.507813 29.507812 29.507813h56.269532c4.144531 0 7.5-3.355469 7.5-7.5 0-4.140625-3.355469-7.5-7.5-7.5zm0 0"/><path d="m482.488281 154.054688h-37.261719c-4.140624 0-7.5 3.359374-7.5 7.5 0 4.140624 3.359376 7.5 7.5 7.5h37.261719c8.003907 0 14.511719 6.507812 14.511719 14.511718v172.5625c0 8-6.507812 14.507813-14.511719 14.507813h-366.476562c-4.140625 0-7.5 3.359375-7.5 7.5 0 4.144531 3.359375 7.5 7.5 7.5h366.476562c16.273438 0 29.511719-13.238281 29.511719-29.507813v-172.5625c0-16.273437-13.238281-29.511718-29.511719-29.511718zm0 0"/><path d="m42.835938 189.390625c-4.140626 0-7.5 3.359375-7.5 7.5v145.910156c0 4.140625 3.359374 7.5 7.5 7.5h309.480468c4.144532 0 7.5-3.359375 7.5-7.5v-145.910156c0-4.140625-3.355468-7.5-7.5-7.5zm301.980468 48.636719h-31.660156v-33.636719h31.660156zm-294.480468 48.636718v-33.636718h15.289062v33.636718zm30.289062-33.636718h34.585938v33.636718h-34.585938zm179.527344-15v-33.636719h38.003906v33.636719zm-23.9375 48.636718v-33.636718h38.003906v33.636718zm-106.003906 0v-33.636718h38.003906v33.636718zm53.003906-33.636718h38v33.636718h-38zm61.9375-15h-38.003906v-33.636719h38.003906zm-53.003906 0h-38.003907v-33.636719h38.003907zm-53.003907 0h-38v-33.636719h38zm0 63.636718v33.636719h-38v-33.636719zm15 0h91.007813v33.636719h-91.007813zm106.007813 0h38.003906v33.636719h-38.003906zm29.066406-15v-33.636718h55.597656v33.636718zm-203.074219-82.273437v33.636719h-35.808593v-33.636719zm-35.808593 97.273437h35.808593v33.636719h-35.808593zm262.820312 33.636719v-33.636719h31.660156v33.636719zm0 0"/><path d="m385.355469 196.890625v145.910156c0 4.140625 3.355469 7.5 7.5 7.5h76.308593c4.140626 0 7.5-3.359375 7.5-7.5v-145.910156c0-4.140625-3.359374-7.5-7.5-7.5h-76.308593c-4.144531 0-7.5 3.359375-7.5 7.5zm76.308593 56.136719v33.636718h-23.695312v-33.636718zm-38.695312 33.636718h-22.613281v-33.636718h22.613281zm-22.613281 15h22.613281v33.636719h-22.613281zm37.613281 33.636719v-33.636719h23.695312v33.636719zm23.695312-97.273437h-23.695312v-33.636719h23.695312zm-38.695312-33.636719v33.636719h-22.613281v-33.636719zm0 0"/><path d="m91.933594 64.585938h314.601562c10.003906 0 18.144532 8.140624 18.144532 18.144531 0 10.007812-8.140626 18.148437-18.144532 18.148437h-309.472656c-18.277344 0-33.144531 14.867188-33.144531 33.144532v2c0 4.144531 3.355469 7.5 7.5 7.5 4.140625 0 7.5-3.355469 7.5-7.5v-2c0-10.003907 8.140625-18.144532 18.144531-18.144532h309.472656c18.277344 0 33.144532-14.871094 33.144532-33.148437 0-18.277344-14.867188-33.144531-33.144532-33.144531h-314.601562c-10.003906 0-18.144532-8.140626-18.144532-18.148438v-23.9375c0-4.140625-3.359374-7.5-7.5-7.5-4.144531 0-7.5 3.359375-7.5 7.5v23.9375c-.003906 18.277344 14.867188 33.148438 33.144532 33.148438zm0 0"/></svg>