<svg id="Capa_1" enable-background="new 0 0 512 512" height="512" viewBox="0 0 512 512" width="512" xmlns="http://www.w3.org/2000/svg"><path d="m256 50c5.522 0 10-4.477 10-10v-30c0-5.523-4.478-10-10-10s-10 4.477-10 10v30c0 5.523 4.478 10 10 10z"/><path d="m466 266h36c5.522 0 10-4.477 10-10s-4.478-10-10-10h-36c-5.522 0-10 4.477-10 10s4.478 10 10 10z"/><path d="m10 266h36c5.522 0 10-4.477 10-10s-4.478-10-10-10h-36c-5.522 0-10 4.477-10 10s4.478 10 10 10z"/><path d="m411.562 108.581 21.22-21.22c3.905-3.905 3.905-10.237 0-14.143-3.906-3.905-10.236-3.905-14.143 0l-21.22 21.22c-3.905 3.905-3.905 10.237 0 14.143 3.906 3.905 10.236 3.905 14.143 0z"/><path d="m100.438 108.581c3.906 3.905 10.236 3.905 14.143 0 3.905-3.905 3.905-10.237 0-14.143l-21.22-21.22c-3.906-3.905-10.236-3.905-14.143 0-3.905 3.905-3.905 10.237 0 14.143z"/><circle cx="256" cy="502" r="10"/><path d="m111 241v75c0 54.813 44.113 86.291 60 95.848v90.152c0 5.523 4.478 10 10 10h30c5.522 0 10-4.477 10-10s-4.478-10-10-10h-20v-86c0-3.773-2.142-7.234-5.51-8.935-.545-.275-54.49-28.138-54.49-81.065v-75c0-11.028 8.972-20 20-20.01h108.995c-4.645 22.804-24.849 40.01-48.995 40.01h-30c-5.522 0-10 4.477-10 10s4.478 10 10 10c44.112 0 80 35.888 80 80 0 5.523 4.478 10 10 10s10-4.477 10-10c0-27.57 22.43-50 50-50 5.522 0 10-4.477 10-10s-4.478-10-10-10c-24.105 0-45.402 12.248-57.998 30.846-7.927-18.555-21.298-34.25-38.105-45.047 17.398-6.339 31.589-19.399 39.436-36.018 7.083 6.349 16.43 10.179 26.668 10.179 2.563 0 5.184.04 7.595.04 4.716 0 9.264-.112 13.451-.947 4.113 17.708 20.011 30.947 38.953 30.947 7.283 0 14.112-1.966 20-5.381v40.381c0 52.927-53.945 80.79-54.472 81.056-3.388 1.694-5.528 5.156-5.528 8.944v86h-20c-5.522 0-10 4.477-10 10s4.478 10 10 10h30c5.522 0 10-4.477 10-10v-90.152c15.887-9.557 60-41.035 60-95.848 0-19.906 0-94.443 0-126 0-22.056-17.944-40-40-40-7.388 0-14.311 2.021-20.256 5.529-2.231-19.959-19.2-35.529-39.744-35.529-7.388 0-14.311 2.021-20.256 5.529-2.231-19.959-19.2-35.529-39.744-35.529s-37.513 15.57-39.744 35.529c-5.945-3.508-12.868-5.529-20.256-5.529-22.056 0-40 17.944-40 40v42.266c-17.233 4.452-30 20.13-30 38.734zm250-71c11.028 0 20 8.972 20 20v51c0 11.028-8.972 20-20 20s-20-8.972-20-20v-51c0-11.028 8.972-20 20-20zm-60-30c11.028 0 20 8.972 20 20v66c0 2.836-.571 3.632-.577 3.638-1.503 1.491-10.186 1.422-15.375 1.383-1.324-.011-2.676-.021-4.048-.021-11.028 0-20-8.972-20-20v-51c0-11.028 8.972-20 20-20zm-80-10c0-11.028 8.972-20 20-20s20 8.972 20 20v71h-40zm-40 10c11.028 0 20 8.972 20 20v41h-40v-41c0-11.028 8.972-20 20-20z"/></svg>