<svg id="Capa_1" enable-background="new 0 0 511.996 511.996" height="512" viewBox="0 0 511.996 511.996" width="512" xmlns="http://www.w3.org/2000/svg"><g><path d="m511.435 207.326c-1.566-4.931-6.094-8.243-11.267-8.243h-68.403c-1.996-.026-3.991.782-5.4 2.192l-36.333 36.333c-4.911 4.917-13.13 4.913-18.041-.004l-35.798-35.788c-13.039-15.255-30.261-26.825-49.453-32.77 12.144-9.279 19.999-23.901 19.999-40.329v-32.544c0-19.973-16.25-36.223-36.223-36.223h-29.031c-19.973 0-36.223 16.25-36.223 36.223v32.543c0 16.418 7.845 31.032 19.976 40.312-10.052 3.12-19.611 7.777-28.288 13.732-3.416 2.344-4.284 7.012-1.94 10.427 2.343 3.415 7.013 4.282 10.427 1.94 2.215-1.52 4.508-2.935 6.848-4.253l36.088 64.833v138.836h-59.556v-119.655c0-6.528-8.183-9.924-12.803-5.303l-8.88 8.88c-19.932 19.932-52.362 19.931-72.293 0l-37.893-37.893 23.384-23.383 31.02 31.02c10.702 10.716 28.554 10.722 39.259.004l30.221-30.213c2.929-2.929 2.93-7.677.001-10.607-2.929-2.929-7.678-2.93-10.607-.001l-30.225 30.217c-4.91 4.916-13.13 4.913-18.04-.003l-36.33-36.33c-1.408-1.409-3.417-2.22-5.408-2.192h-68.395c-5.173 0-9.701 3.313-11.267 8.243-1.566 4.931.221 10.249 4.447 13.234l36.49 25.774 42.737 42.737c24.509 24.51 63.633 25.717 89.583 3.622v163.971c0 4.142 3.358 7.5 7.5 7.5s7.5-3.358 7.5-7.5v-47.122h134.36v75.257h-59.805v-35.146h8.619c4.142 0 7.5-3.358 7.5-7.5s-3.358-7.5-7.5-7.5h-31.981c-4.142 0-7.5 3.358-7.5 7.5s3.358 7.5 7.5 7.5h8.362v35.146h-119.34c-4.142 0-7.5 3.358-7.5 7.5s3.358 7.5 7.5 7.5h253.68c4.142 0 7.5-3.358 7.5-7.5s-3.358-7.5-7.5-7.5h-44.535v-192.107c25.949 22.095 65.073 20.888 89.583-3.622l42.737-42.737 36.491-25.775c4.225-2.984 6.012-8.302 4.446-13.233zm-449.218 6.757-16.715 16.715-23.665-16.715zm201.156-34.35c7.753.615 15.354 2.272 22.634 4.885l-22.634 40.406zm-21.889-104.782h29.031c11.216 0 20.404 8.753 21.15 19.783h-71.331c.746-11.031 9.934-19.783 21.15-19.783zm-21.222 34.783h71.477v18.982c0 19.706-16.032 35.738-35.738 35.738s-35.738-16.032-35.738-35.738v-18.982zm5.701 74.872c7.264-2.613 14.758-4.243 22.41-4.861v45.122zm191.192 93.859c-19.703 19.702-52.59 19.702-72.293 0-2.764-2.764-5.408-5.77-8.344-8.344-4.774-4.185-13.339-3.045-13.339 4.767v119.655h-59.805v-138.825l36.321-64.841c9.414 5.297 17.993 12.328 25.268 20.888.131.155.269.304.412.447l36.006 35.996c10.691 10.705 28.567 10.71 39.26.003l31.023-31.023 23.384 23.383zm49.339-47.667-16.715-16.715h40.38z"/><path d="m70.621 174.202c24.46 0 44.359-19.899 44.359-44.359s-19.899-44.36-44.359-44.36-44.359 19.899-44.359 44.359 19.899 44.36 44.359 44.36zm0-73.719c16.189 0 29.359 13.17 29.359 29.359s-13.17 29.359-29.359 29.359-29.359-13.17-29.359-29.359 13.17-29.359 29.359-29.359z"/><path d="m64.116 136.35h13.009c4.142 0 7.5-3.358 7.5-7.5s-3.358-7.5-7.5-7.5h-13.009c-4.142 0-7.5 3.358-7.5 7.5s3.358 7.5 7.5 7.5z"/><path d="m441.383 174.202c24.46 0 44.36-19.899 44.36-44.359 0-3.654-.447-7.291-1.328-10.81-1.007-4.019-5.083-6.455-9.098-5.453-4.018 1.007-6.459 5.08-5.453 9.098.583 2.328.879 4.738.879 7.165 0 16.189-13.171 29.359-29.36 29.359s-29.359-13.17-29.359-29.359 13.17-29.359 29.359-29.359c3.311 0 6.559.545 9.651 1.621 3.913 1.363 8.187-.708 9.547-4.621 1.36-3.912-.708-8.187-4.621-9.547-4.68-1.627-9.585-2.453-14.577-2.453-24.46 0-44.359 19.899-44.359 44.359s19.899 44.359 44.359 44.359z"/><path d="m363.314 74.952c17.302 0 31.378-14.076 31.378-31.378s-14.076-31.378-31.378-31.378-31.378 14.076-31.378 31.378 14.077 31.378 31.378 31.378zm0-47.756c9.031 0 16.378 7.347 16.378 16.378s-7.347 16.378-16.378 16.378-16.378-7.347-16.378-16.378 7.348-16.378 16.378-16.378z"/><path d="m148.69 74.952c17.302 0 31.378-14.076 31.378-31.378s-14.076-31.378-31.378-31.378-31.378 14.076-31.378 31.378 14.076 31.378 31.378 31.378zm0-47.756c9.031 0 16.378 7.347 16.378 16.378s-7.347 16.378-16.378 16.378-16.378-7.347-16.378-16.378 7.347-16.378 16.378-16.378z"/><path d="m447.888 121.35h-13.009c-4.142 0-7.5 3.358-7.5 7.5s3.358 7.5 7.5 7.5h13.009c4.142 0 7.5-3.358 7.5-7.5 0-4.143-3.358-7.5-7.5-7.5z"/><path d="m256.002 142.87c4.142 0 7.5-3.358 7.5-7.5v-10.109c0-4.142-3.358-7.5-7.5-7.5s-7.5 3.358-7.5 7.5v10.109c0 4.142 3.358 7.5 7.5 7.5z"/></g></svg>