<svg id="Capa_1" data-name="Capa 1" xmlns="http://www.w3.org/2000/svg" viewBox="0 0 469.33 469.33"><title>pinknoise</title><path d="M10.67,298.67A10.67,10.67,0,0,1,0,288V181.33a10.67,10.67,0,0,1,21.33,0V288A10.67,10.67,0,0,1,10.67,298.67Z" transform="translate(0 0)" style="fill:#f44336"/><path d="M74.67,384A10.67,10.67,0,0,1,64,373.33V96a10.67,10.67,0,1,1,21.33,0V373.33A10.67,10.67,0,0,1,74.67,384Z" transform="translate(0 0)" style="fill:#f44336"/><path d="M138.67,469.33A10.67,10.67,0,0,1,128,458.67v-448a10.67,10.67,0,1,1,21.33,0v448A10.66,10.66,0,0,1,138.67,469.33Z" transform="translate(0 0)" style="fill:#f44336"/><path d="M202.67,448A10.67,10.67,0,0,1,192,437.33V32a10.67,10.67,0,1,1,21.33,0V437.33A10.67,10.67,0,0,1,202.67,448Z" transform="translate(0 0)" style="fill:#f44336"/><path d="M266.67,362.67A10.67,10.67,0,0,1,256,352V117.33a10.67,10.67,0,0,1,21.33,0V352A10.67,10.67,0,0,1,266.67,362.67Z" transform="translate(0 0)" style="fill:#f44336"/><path d="M330.67,448A10.67,10.67,0,0,1,320,437.33V32a10.67,10.67,0,1,1,21.33,0V437.33A10.67,10.67,0,0,1,330.67,448Z" transform="translate(0 0)" style="fill:#f44336"/><path d="M394.67,362.67A10.67,10.67,0,0,1,384,352V117.33a10.67,10.67,0,0,1,21.33,0V352A10.67,10.67,0,0,1,394.67,362.67Z" transform="translate(0 0)" style="fill:#f44336"/><path d="M458.67,298.67A10.67,10.67,0,0,1,448,288V181.33a10.67,10.67,0,0,1,21.33,0V288A10.67,10.67,0,0,1,458.67,298.67Z" transform="translate(0 0)" style="fill:#f44336"/><path d="M10.67,298.67A10.67,10.67,0,0,1,0,288V181.33a10.67,10.67,0,0,1,21.33,0V288A10.67,10.67,0,0,1,10.67,298.67Z" transform="translate(0 0)"/><path d="M74.67,384A10.67,10.67,0,0,1,64,373.33V96a10.67,10.67,0,1,1,21.33,0V373.33A10.67,10.67,0,0,1,74.67,384Z" transform="translate(0 0)"/><path d="M138.67,469.33A10.67,10.67,0,0,1,128,458.67v-448a10.67,10.67,0,1,1,21.33,0v448A10.66,10.66,0,0,1,138.67,469.33Z" transform="translate(0 0)"/><path d="M202.67,448A10.67,10.67,0,0,1,192,437.33V32a10.67,10.67,0,1,1,21.33,0V437.33A10.67,10.67,0,0,1,202.67,448Z" transform="translate(0 0)"/><path d="M266.67,362.67A10.67,10.67,0,0,1,256,352V117.33a10.67,10.67,0,0,1,21.33,0V352A10.67,10.67,0,0,1,266.67,362.67Z" transform="translate(0 0)"/><path d="M330.67,448A10.67,10.67,0,0,1,320,437.33V32a10.67,10.67,0,1,1,21.33,0V437.33A10.67,10.67,0,0,1,330.67,448Z" transform="translate(0 0)"/><path d="M394.67,362.67A10.67,10.67,0,0,1,384,352V117.33a10.67,10.67,0,0,1,21.33,0V352A10.67,10.67,0,0,1,394.67,362.67Z" transform="translate(0 0)"/><path d="M458.67,298.67A10.67,10.67,0,0,1,448,288V181.33a10.67,10.67,0,0,1,21.33,0V288A10.67,10.67,0,0,1,458.67,298.67Z" transform="translate(0 0)"/><path d="M417,70.28v-53h18.64a20.28,20.28,0,0,1,7.07,1.22A17.64,17.64,0,0,1,448.45,22a16.42,16.42,0,0,1,0,24.2,17.46,17.46,0,0,1-5.74,3.44,20,20,0,0,1-7.07,1.22H427V70.28Zm18.79-28.94a7.55,7.55,0,0,0,5.92-2.22,7.41,7.41,0,0,0,2-5.1,8,8,0,0,0-.48-2.74A6.27,6.27,0,0,0,441.75,29a7.15,7.15,0,0,0-2.48-1.59,9.25,9.25,0,0,0-3.48-.6H427V41.34Z" transform="translate(0 0)"/></svg>