<?xml version="1.0" encoding="utf-8"?>
<!-- Generator: Adobe Illustrator 23.0.1, SVG Export Plug-In . SVG Version: 6.00 Build 0)  -->
<svg version="1.1" id="Capa_1" xmlns="http://www.w3.org/2000/svg" xmlns:xlink="http://www.w3.org/1999/xlink" x="0px" y="0px"
	 viewBox="0 0 508.1 508.1" style="enable-background:new 0 0 508.1 508.1;" xml:space="preserve">
<g id="SVGCleanerId_0">
	<g>
		<path d="M473.3,173.9c1.3-8,2-16.1,2-24.1c0-81.3-66.2-147.5-147.5-147.5c-53.7,0-102.1,28.6-128.3,75
			c-13.7-6.2-28.7-9.4-43.8-9.4c-56.5,0-102.9,44.2-106.3,100.4C20.8,175.6,0,201.8,0,231.8c0,36.1,29.4,65.5,65.5,65.5h377
			c36.1,0,65.5-29.4,65.6-65.5C508.1,207.2,494.6,185.2,473.3,173.9z M442.5,280.9H65.6c-27.1,0-49.2-22.1-49.2-49.2
			c0-24.3,18.2-45.2,42.2-48.6l7-1.6v-7.1c0-49.7,40.4-90.1,90.1-90.1c15.1,0,30.1,3.8,43.4,11.1l7.5,4.1l3.8-7.7
			c22.3-45.1,67.3-73.1,117.4-73.1c72.3,0,131.1,58.8,131.1,131.1c0,9-0.9,18.1-2.8,27.1l-1.4,6.7l6.3,2.6
			c18.7,7.5,30.7,25.4,30.7,45.5C491.7,258.8,469.6,280.9,442.5,280.9z"/>
	</g>
</g>
<g>
	<g>
		<path d="M473.3,173.9c1.3-8,2-16.1,2-24.1c0-81.3-66.2-147.5-147.5-147.5c-53.7,0-102.1,28.6-128.3,75
			c-13.7-6.2-28.7-9.4-43.8-9.4c-56.5,0-102.9,44.2-106.3,100.4C20.8,175.6,0,201.8,0,231.8c0,36.1,29.4,65.5,65.5,65.5h377
			c36.1,0,65.5-29.4,65.6-65.5C508.1,207.2,494.6,185.2,473.3,173.9z M442.5,280.9H65.6c-27.1,0-49.2-22.1-49.2-49.2
			c0-24.3,18.2-45.2,42.2-48.6l7-1.6v-7.1c0-49.7,40.4-90.1,90.1-90.1c15.1,0,30.1,3.8,43.4,11.1l7.5,4.1l3.8-7.7
			c22.3-45.1,67.3-73.1,117.4-73.1c72.3,0,131.1,58.8,131.1,131.1c0,9-0.9,18.1-2.8,27.1l-1.4,6.7l6.3,2.6
			c18.7,7.5,30.7,25.4,30.7,45.5C491.7,258.8,469.6,280.9,442.5,280.9z"/>
	</g>
</g>
<g>
	<g>
		<path d="M336,43.3v16.5c45.1,0,81.9,36.7,81.9,81.9h16.4C434.3,87.4,390.1,43.3,336,43.3z"/>
	</g>
</g>
<g>
	<g>
		<polygon points="93.1,317.9 68.5,375.2 83.6,381.7 108.2,324.3 		"/>
	</g>
</g>
<g>
	<g>
		<polygon points="443.1,326.9 418.5,384.2 433.6,390.7 458.2,333.3 		"/>
	</g>
</g>
<g>
	<g>
		<polygon points="130,399.8 105.4,457.2 120.4,463.6 145,406.3 		"/>
	</g>
</g>
<g>
	<g>
		<polygon points="320.3,321 295.7,378.3 310.8,384.8 335.4,327.4 		"/>
	</g>
</g>
<g>
	<g>
		<polygon points="242.5,402.9 217.9,460.3 233,466.7 257.5,409.4 		"/>
	</g>
</g>
<g>
	<g>
		<polygon points="353.1,402.9 328.5,460.3 343.6,466.7 368.1,409.4 		"/>
	</g>
</g>
<g>
	<g>
		<polygon points="209.5,321 184.9,378.3 200,384.8 224.6,327.4 		"/>
	</g>
</g>
</svg>
