<svg id="Layer_1" enable-background="new 0 0 512 512" height="512" viewBox="0 0 512 512" width="512" xmlns="http://www.w3.org/2000/svg"><g><path d="m104.085 425.786c4.142 0 7.5-3.358 7.5-7.5s-3.358-7.5-7.5-7.5h-47.795c-4.142 0-7.5 3.358-7.5 7.5s3.358 7.5 7.5 7.5z"/><path d="m152.085 425.786c4.142 0 7.5-3.358 7.5-7.5s-3.358-7.5-7.5-7.5h-17.795c-4.142 0-7.5 3.358-7.5 7.5s3.358 7.5 7.5 7.5z"/><path d="m231.29 450.876c-4.143 0-7.5 3.358-7.5 7.5s3.357 7.5 7.5 7.5h20.795c4.143 0 7.5-3.358 7.5-7.5s-3.357-7.5-7.5-7.5z"/><path d="m118.79 458.376c0 4.142 3.358 7.5 7.5 7.5h74.795c4.142 0 7.5-3.358 7.5-7.5s-3.358-7.5-7.5-7.5h-74.795c-4.142 0-7.5 3.358-7.5 7.5z"/><path d="m386.88 410.786h-67.795c-4.143 0-7.5 3.358-7.5 7.5s3.357 7.5 7.5 7.5h67.795c4.143 0 7.5-3.358 7.5-7.5s-3.358-7.5-7.5-7.5z"/><path d="m288.88 425.786c4.143 0 7.5-3.358 7.5-7.5s-3.357-7.5-7.5-7.5h-27.795c-4.143 0-7.5 3.358-7.5 7.5s3.357 7.5 7.5 7.5z"/><path d="m335.051 458.376c0 4.142 3.357 7.5 7.5 7.5h104.154c4.143 0 7.5-3.358 7.5-7.5s-3.357-7.5-7.5-7.5h-104.154c-4.143 0-7.5 3.358-7.5 7.5z"/><path d="m504.5 497h-91.412c-4.143 0-7.5 3.358-7.5 7.5s3.357 7.5 7.5 7.5h91.412c4.143 0 7.5-3.358 7.5-7.5s-3.357-7.5-7.5-7.5z"/><path d="m504.5 345.639c-13.391 0-20.343 6.728-25.928 12.133-4.746 4.593-8.175 7.912-15.495 7.912-7.321 0-10.75-3.319-15.496-7.912-5.585-5.405-12.536-12.133-25.927-12.133-13.39 0-20.341 6.728-25.926 12.134-4.744 4.593-8.173 7.911-15.491 7.911-7.319 0-10.748-3.318-15.493-7.912-5.585-5.406-12.535-12.133-25.926-12.133-13.39 0-20.34 6.728-25.925 12.133-4.744 4.593-8.173 7.912-15.491 7.912s-10.747-3.318-15.491-7.912c-5.585-5.406-12.535-12.133-25.925-12.133-13.389 0-20.339 6.728-25.923 12.134-4.744 4.592-8.172 7.911-15.488 7.911-7.318 0-10.747-3.318-15.491-7.911-5.584-5.406-12.535-12.134-25.924-12.134s-20.34 6.728-25.925 12.134c-4.745 4.593-8.173 7.911-15.492 7.911s-10.747-3.318-15.492-7.912c-5.584-5.406-12.535-12.133-25.924-12.133s-20.339 6.728-25.923 12.134c-4.745 4.593-8.173 7.911-15.491 7.911s-10.746-3.318-15.49-7.911c-5.584-5.406-12.534-12.134-25.923-12.134-4.142 0-7.5 3.358-7.5 7.5s3.358 7.5 7.5 7.5c7.318 0 10.746 3.318 15.49 7.911 5.584 5.406 12.534 12.134 25.923 12.134s20.339-6.728 25.923-12.134c4.745-4.593 8.173-7.911 15.491-7.911s10.747 3.318 15.492 7.912c5.584 5.406 12.535 12.133 25.924 12.133s20.339-6.728 25.924-12.133c4.745-4.593 8.173-7.912 15.492-7.912s10.747 3.318 15.492 7.912c5.584 5.406 12.535 12.133 25.924 12.133 13.388 0 20.338-6.728 25.922-12.134 4.744-4.593 8.172-7.911 15.489-7.911 7.318 0 10.747 3.318 15.491 7.912 5.585 5.406 12.535 12.133 25.925 12.133s20.34-6.728 25.925-12.133c4.744-4.593 8.173-7.912 15.491-7.912 7.32 0 10.748 3.319 15.494 7.912 5.585 5.406 12.535 12.133 25.925 12.133s20.34-6.728 25.924-12.133c4.745-4.593 8.174-7.912 15.493-7.912 7.32 0 10.749 3.318 15.495 7.912 5.585 5.406 12.537 12.133 25.928 12.133s20.342-6.728 25.927-12.133c4.746-4.593 8.175-7.912 15.496-7.912 4.143 0 7.5-3.358 7.5-7.5s-3.357-7.5-7.5-7.5z"/><path d="m378.231 497h-370.731c-4.142 0-7.5 3.358-7.5 7.5s3.358 7.5 7.5 7.5h370.731c4.143 0 7.5-3.358 7.5-7.5s-3.357-7.5-7.5-7.5z"/><path d="m7.5 320.775c19.815 0 29.452 2.327 39.655 4.791 10.607 2.561 21.575 5.209 43.176 5.209s32.569-2.648 43.176-5.209c10.203-2.463 19.84-4.791 39.656-4.791 19.815 0 29.452 2.327 39.655 4.791 10.607 2.561 21.576 5.209 43.175 5.209 21.602 0 32.57-2.648 43.178-5.209 10.203-2.463 19.84-4.791 39.655-4.791 19.817 0 29.455 2.327 39.659 4.791 10.607 2.561 21.576 5.209 43.178 5.209 21.603 0 32.571-2.648 43.18-5.209 10.203-2.463 19.841-4.791 39.657-4.791 4.143 0 7.5-3.358 7.5-7.5s-3.357-7.5-7.5-7.5c-21.602 0-32.57 2.648-43.178 5.209-10.204 2.463-19.842 4.791-39.659 4.791-19.816 0-29.454-2.327-39.657-4.791-10.608-2.561-21.577-5.209-43.18-5.209-19.163 0-29.958 2.084-39.556 4.343l26.525-91.831c3.251-11.056 14.866-17.444 25.954-14.241 11.114 3.21 17.545 14.866 14.335 25.981-1.13 3.906 1.065 8.018 4.964 9.238.746.234 1.501.345 2.243.345 3.192 0 6.151-2.054 7.155-5.261.043-.137.131-.42.257-.839 3.481-10.695 14.882-16.801 25.773-13.656 5.384 1.555 9.841 5.114 12.548 10.021 2.708 4.907 3.342 10.575 1.787 15.959-1.149 3.979 1.145 8.137 5.124 9.287.695.201 1.396.296 2.085.296 3.255 0 6.253-2.137 7.201-5.42 9.002-31.161 5.329-63.962-10.341-92.361-14.456-26.199-37.526-45.758-65.479-55.698l3.117-10.79c1.149-3.979-1.145-8.137-5.124-9.287-3.978-1.148-8.137 1.145-9.286 5.125l-3.117 10.793c-62.061-13.882-125.207 22.916-143.09 84.823-1.149 3.979 1.145 8.138 5.124 9.287 3.982 1.147 8.137-1.146 9.287-5.124 3.21-11.115 14.861-17.547 25.981-14.335 10.882 3.143 17.274 14.38 14.525 25.281-.119.429-.197.72-.234.861-1.061 4.004 1.325 8.11 5.329 9.171.644.17 1.29.252 1.926.252 3.277 0 6.277-2.165 7.21-5.454 3.224-11.095 14.868-17.509 25.972-14.303 5.384 1.555 9.841 5.114 12.548 10.021 2.708 4.907 3.343 10.575 1.787 15.959h.001l-28.765 99.584c-6.801 1.165-14.938 1.972-26.6 1.972-19.814 0-29.452-2.327-39.655-4.791-1.632-.394-3.273-.79-4.96-1.179.448-.411.89-.833 1.323-1.266 7.89-7.89 12.235-18.38 12.235-29.538s-4.345-21.648-12.235-29.538-18.38-12.235-29.538-12.235-21.648 4.345-29.538 12.235c-15.731 15.73-16.267 40.989-1.612 57.371-9.009 1.007-15.584 2.594-22.026 4.15-10.203 2.463-19.84 4.791-39.655 4.791s-29.452-2.327-39.655-4.791c-10.607-2.561-21.575-5.209-43.176-5.209-4.142 0-7.5 3.358-7.5 7.5s3.358 7.501 7.5 7.501zm348.412-131.14c-7.516-2.17-15.177-1.769-22.037.681l21.211-73.431c5.615 3.045 10.022 7.614 13.363 13.825 7.261 13.5 9.229 34.733 5.69 61.403-.378 2.846-.801 5.616-1.25 8.279-4.373-4.967-10.161-8.788-16.977-10.757zm55.836-24.752c8.372 15.172 12.836 31.777 13.26 48.617-4.046-3.724-8.931-6.486-14.368-8.057-8.094-2.338-16.356-1.693-23.606 1.282 3.837-20.969 6.577-49.953-.976-72.789 10.325 8.464 19.046 18.906 25.69 30.947zm-165.291-6.863c-5.516-1.593-11.112-1.801-16.412-.829 17.189-25.704 44.86-42.629 75.252-46.489-18.522 15.301-31.631 41.232-39.554 60.988-4.545-6.382-11.191-11.332-19.286-13.67zm54.728 15.807c-6.816-1.969-13.75-1.823-20.099.048 1.01-2.42 2.096-4.915 3.258-7.451 11.246-24.559 24.262-41.545 37.642-49.123 6.142-3.479 12.31-4.997 18.69-4.578l-21.203 73.404c-4.621-5.893-10.952-10.181-18.288-12.3zm-94.536 92.296c2.147 3.901 3.287 8.303 3.287 12.879 0 7.151-2.785 13.875-7.842 18.932s-11.78 7.842-18.932 7.842c-4.577 0-8.978-1.141-12.879-3.288zm-42.418-6.052c5.057-5.057 11.78-7.842 18.932-7.842 4.577 0 8.978 1.141 12.88 3.287l-36.358 36.358c-5.568-10.165-4.052-23.205 4.546-31.803z"/><path d="m128.994 110.231c17.203 0 31.199-14 31.199-31.208s-13.996-31.208-31.199-31.208-31.199 14-31.199 31.208 13.996 31.208 31.199 31.208zm0-47.416c8.932 0 16.199 7.271 16.199 16.208 0 8.938-7.267 16.208-16.199 16.208s-16.199-7.271-16.199-16.208 7.267-16.208 16.199-16.208z"/><path d="m121.494 132.744v17.802c0 4.142 3.358 7.5 7.5 7.5s7.5-3.358 7.5-7.5v-17.802c0-4.142-3.358-7.5-7.5-7.5s-7.5 3.358-7.5 7.5z"/><path d="m128.994 32.803c4.142 0 7.5-3.358 7.5-7.5v-17.803c0-4.142-3.358-7.5-7.5-7.5s-7.5 3.358-7.5 7.5v17.803c0 4.142 3.358 7.5 7.5 7.5z"/><path d="m57.5 86.523h17.795c4.142 0 7.5-3.358 7.5-7.5s-3.358-7.5-7.5-7.5h-17.795c-4.142 0-7.5 3.358-7.5 7.5s3.358 7.5 7.5 7.5z"/><path d="m175.193 79.023c0 4.142 3.358 7.5 7.5 7.5h17.795c4.142 0 7.5-3.358 7.5-7.5s-3.358-7.5-7.5-7.5h-17.795c-4.142 0-7.5 3.358-7.5 7.5z"/><path d="m85.719 111.707-12.583 12.588c-2.928 2.929-2.928 7.678.002 10.606 1.464 1.464 3.383 2.196 5.302 2.196s3.84-.733 5.304-2.198l12.583-12.588c2.928-2.929 2.928-7.678-.002-10.606-2.928-2.928-7.677-2.928-10.606.002z"/><path d="m166.965 48.537c1.92 0 3.84-.733 5.304-2.198l12.583-12.588c2.929-2.93 2.928-7.678-.002-10.606-2.93-2.929-7.679-2.927-10.606.002l-12.583 12.588c-2.929 2.93-2.928 7.678.002 10.606 1.464 1.464 3.383 2.196 5.302 2.196z"/><path d="m85.719 46.339c1.464 1.465 3.384 2.198 5.304 2.198 1.919 0 3.838-.732 5.302-2.196 2.93-2.928 2.931-7.677.002-10.606l-12.583-12.589c-2.928-2.93-7.677-2.931-10.606-.002-2.93 2.928-2.931 7.677-.002 10.606z"/><path d="m161.663 111.705c-2.93 2.928-2.931 7.677-.002 10.606l12.583 12.588c1.464 1.465 3.384 2.198 5.304 2.198 1.919 0 3.838-.732 5.302-2.196 2.93-2.928 2.931-7.677.002-10.606l-12.583-12.588c-2.928-2.93-7.677-2.93-10.606-.002z"/></g></svg>