<?xml version="1.0" encoding="iso-8859-1"?>
<!-- Generator: Adobe Illustrator 19.0.0, SVG Export Plug-In . SVG Version: 6.00 Build 0)  -->
<svg version="1.1" id="Capa_1" xmlns="http://www.w3.org/2000/svg" xmlns:xlink="http://www.w3.org/1999/xlink" x="0px" y="0px"
	 viewBox="0 0 463.617 463.617" style="enable-background:new 0 0 463.617 463.617;" xml:space="preserve">
<g>
	<g>
		<path d="M305.773,13.538c-4.916-0.01-9.808,0.691-14.524,2.08c-19.475-20.257-51.684-20.891-71.941-1.416
			c-2.703,2.599-5.111,5.488-7.179,8.616h-4.4c-28.173,0.95-50.241,24.559-49.29,52.732c0.898,26.623,22.119,48.078,48.73,49.268
			c9.309,15.154,25.815,24.391,43.6,24.4c21.615-0.011,40.863-13.678,48-34.08c2.253,0.313,4.525,0.473,6.8,0.48
			c28.189,0.056,51.086-22.75,51.142-50.938C356.767,36.491,333.961,13.594,305.773,13.538z M319.253,96.592
			c-7.649,3.278-16.215,3.727-24.164,1.266c-4.221-1.306-8.701,1.058-10.007,5.279c-0.098,0.315-0.175,0.636-0.233,0.961
			c-3.375,19.011-21.522,31.686-40.533,28.311c-11.195-1.987-20.724-9.295-25.547-19.591c-1.323-2.778-4.123-4.551-7.2-4.56
			l-0.8,0.24h-3.36c-19.351,0.218-35.214-15.292-35.432-34.643c-0.218-19.351,15.292-35.214,34.643-35.432
			c2.631-0.03,5.258,0.237,7.829,0.796c3.53,0.71,7.099-1.026,8.72-4.24c8.776-17.198,29.833-24.025,47.031-15.248
			c4.674,2.385,8.751,5.792,11.929,9.968c2.23,2.911,6.153,3.933,9.52,2.48c17.788-7.623,38.387,0.618,46.009,18.405
			C345.281,68.37,337.041,88.969,319.253,96.592z"/>
	</g>
</g>
<g>
	<g>
		<path d="M186.049,133.297c-14.757,0-26.72,11.963-26.72,26.72c0.044,14.739,11.981,26.676,26.72,26.72
			c14.757,0,26.72-11.963,26.72-26.72C212.769,145.26,200.806,133.297,186.049,133.297z M186.049,170.657
			c-5.92,0-10.72-4.799-10.72-10.72c0.044-5.902,4.818-10.676,10.72-10.72c5.92,0,10.72,4.799,10.72,10.72
			C196.769,165.858,191.969,170.657,186.049,170.657z"/>
	</g>
</g>
<g>
	<g>
		<path d="M144.289,177.137c-11.664-0.088-21.191,9.296-21.279,20.96c-0.088,11.664,9.296,21.191,20.96,21.279
			c11.663,0.088,21.19-9.295,21.279-20.959C165.293,186.771,155.935,177.269,144.289,177.137z M144.289,203.378v0.08
			c-2.828,0-5.12-2.292-5.12-5.12s2.292-5.12,5.12-5.12s5.12,2.292,5.12,5.12C149.365,201.134,147.086,203.378,144.289,203.378z"/>
	</g>
</g>
<g>
	<g>
		<path d="M251.809,98.977c-0.854-0.696-1.941-1.039-3.04-0.96h-16.48l15.36-17.2l1.44-1.6l0.96-1.12
			c0.268-0.368,0.484-0.772,0.64-1.2c0.079-0.45,0.079-0.91,0-1.36c0.097-1.132-0.462-2.221-1.44-2.8
			c-1.275-0.595-2.675-0.869-4.08-0.8h-19.12c-1.035-0.069-2.06,0.244-2.88,0.88c-0.658,0.586-1.012,1.441-0.96,2.32
			c0,1.28,0.48,2.16,1.36,2.4c1.273,0.364,2.596,0.526,3.92,0.48h12.8l-2.08,2.56l-3.2,3.68l-4.16,4.64l-5.04,5.6
			c-1.76,1.92-2.907,3.253-3.44,4c-1.331,1.416-1.331,3.624,0,5.04c1.032,0.775,2.313,1.145,3.6,1.04h22.8
			c1.087,0.094,2.171-0.22,3.04-0.88c0.678-0.577,1.06-1.43,1.04-2.32C252.87,100.464,252.49,99.587,251.809,98.977z"/>
	</g>
</g>
<g>
	<g>
		<path d="M302.929,71.378c-1.055-0.864-2.4-1.293-3.76-1.2h-20.72l19.28-21.36l1.84-2l1.12-1.44c0.333-0.469,0.602-0.98,0.8-1.52
			c0.105-0.582,0.105-1.178,0-1.76c0.275-1.402-0.286-2.837-1.44-3.68c-1.604-0.73-3.361-1.059-5.12-0.96h-24
			c-1.287-0.105-2.568,0.265-3.6,1.04c-0.847,0.712-1.319,1.774-1.28,2.88c0,1.68,0.56,2.64,1.68,3.04
			c1.588,0.437,3.234,0.626,4.88,0.56h16c-0.64,0.907-1.493,1.973-2.56,3.2l-4,4.64l-5.28,5.84l-6.32,6.96
			c-2.187,2.453-3.627,4.133-4.32,5.04c-0.64,0.766-1.006,1.723-1.04,2.72c-0.059,1.367,0.499,2.689,1.52,3.6
			c1.139,0.905,2.545,1.411,4,1.44h28.56c1.348,0.1,2.686-0.299,3.76-1.12c0.837-0.719,1.307-1.777,1.28-2.88
			C304.25,73.265,303.782,72.153,302.929,71.378z"/>
	</g>
</g>
<g>
	<g>
		<path d="M391.809,305.777c-38.08-38.08-104.64-57.36-198.08-57.36c-4.418,0-8,3.582-8,8v102h-12.72v-20.64
			c0.171-7.675-5.134-14.39-12.64-16c20.215-20.523,19.966-53.548-0.557-73.763c-20.523-20.215-53.548-19.966-73.763,0.557
			c-20,20.304-20,52.902,0,73.207c-7.506,1.61-12.811,8.325-12.64,16v20.64h-15.44v-157.28c0-4.418-3.582-8-8-8s-8,3.582-8,8v254.48
			c0,4.418,3.582,8,8,8s8-3.582,8-8v-28h347.68v28c0,4.418,3.582,8,8,8s8-3.582,8-8v-89.2
			C421.649,365.137,421.649,335.217,391.809,305.777z M201.649,264.177c168.8,2.08,197.92,70.24,202.96,94.24h-202.96V264.177z
			 M123.169,249.457c19.971,0,36.16,16.189,36.16,36.16c0,19.971-16.189,36.16-36.16,36.16s-36.16-16.189-36.16-36.16
			C87.009,265.647,103.198,249.457,123.169,249.457z M157.009,337.457v20.96h-67.68l0-20.96H157.009z M405.649,411.857l-347.68-0.56
			v-36.88h347.68V411.857z"/>
	</g>
</g>
<g>
</g>
<g>
</g>
<g>
</g>
<g>
</g>
<g>
</g>
<g>
</g>
<g>
</g>
<g>
</g>
<g>
</g>
<g>
</g>
<g>
</g>
<g>
</g>
<g>
</g>
<g>
</g>
<g>
</g>
</svg>
