<?xml version="1.0" encoding="iso-8859-1"?>
<!-- Generator: Adobe Illustrator 19.0.0, SVG Export Plug-In . SVG Version: 6.00 Build 0)  -->
<svg version="1.1" id="Capa_1" xmlns="http://www.w3.org/2000/svg" xmlns:xlink="http://www.w3.org/1999/xlink" x="0px" y="0px"
	 viewBox="0 0 508 508" style="enable-background:new 0 0 508 508;" xml:space="preserve">
<g>
	<g>
		<path d="M112.7,136.45H129c0-40.6,33.1-73.7,73.8-73.7v-16.4C153.1,46.35,112.7,86.75,112.7,136.45z"/>
	</g>
</g>
<g>
	<g>
		<path d="M428.1,128.25h-2.4c-4.2-51.5-47.5-92.2-100-92.2c-11.1,0-22.1,1.8-32.6,5.5c-24.5-23.4-56.4-36.2-90.3-36.2
			c-69.7,0-126.8,54.7-130.9,123.3c-40.3,4.1-71.9,38.2-71.9,79.5c0,44,35.8,79.9,79.9,79.9h18.4v-16.4H79.9
			c-35,0-63.5-28.5-63.5-63.5s28.5-63.5,63.5-63.5h8.2v-8.2c0-63.3,51.5-114.7,114.7-114.7c52.7,0,86.2,39,86.2,39
			s16.9-8.3,36.7-8.3c46.3,0,84,37.7,84,84v8.2h18.4c35,0,63.5,28.5,63.5,63.5s-28.5,63.5-63.5,63.5H319.5v16.4h108.6
			c44,0,79.9-35.8,79.9-79.9C508,164.05,472.2,128.25,428.1,128.25z"/>
	</g>
</g>
<g>
	<g>
		<path d="M304.1,266.55l-71-23.4l6-128.3l-129.7,169.2l71.4,23.6l-29.6,141.9L304.1,266.55z M136.4,275.75l83.9-109.4l-4.1,88.5
			l59.9,19.8l-95.5,114.2l19.2-92.1L136.4,275.75z"/>
	</g>
</g>
<g>
	<g>
		<path d="M361.5,392.55l-38.9-12.8l3.5-75.2l-77.4,100.9l38.3,12.7l-17.6,84.5L361.5,392.55z M275.8,397.15l31.5-41.1l-1.7,35.4
			l27.8,9.1l-34.6,41.4l7.3-34.8L275.8,397.15z"/>
	</g>
</g>
<g>
</g>
<g>
</g>
<g>
</g>
<g>
</g>
<g>
</g>
<g>
</g>
<g>
</g>
<g>
</g>
<g>
</g>
<g>
</g>
<g>
</g>
<g>
</g>
<g>
</g>
<g>
</g>
<g>
</g>
</svg>
