<svg height="496pt" viewBox="0 0 496 496" width="496pt" xmlns="http://www.w3.org/2000/svg"><path d="m398.855469 145.113281c.761719-5.664062 1.144531-11.394531 1.144531-17.113281 0-70.574219-57.425781-128-128-128-51.273438 0-97.257812 30.632812-117.382812 77.167969-15.449219-8.640625-32.761719-13.167969-50.617188-13.167969-57.34375 0-104 46.65625-104 104 0 45.089844 28.472656 84.175781 70.40625 98.375-4.214844 9.28125-6.40625 19.359375-6.40625 29.625 0 39.703125 32.304688 72 72 72 9.910156 0 19.734375-2.089844 28.832031-6.078125 18.144531 33.109375 53.0625 54.078125 91.167969 54.078125 38.0625 0 73.078125-21.039062 91.207031-54.191406 11.800781 4.113281 24.144531 6.191406 36.792969 6.191406 61.761719 0 112-50.238281 112-112 0-56.496094-42-103.59375-97.144531-110.886719zm-14.855469 206.886719c-13.015625 0-25.648438-2.566406-37.550781-7.632812-3.976563-1.703126-8.609375.097656-10.417969 4.039062-14.277344 31.347656-45.695312 51.59375-80.03125 51.59375-34.617188 0-66.136719-20.464844-80.304688-52.136719-.925781-2.078125-2.695312-3.664062-4.863281-4.351562-.792969-.253907-1.617187-.382813-2.433593-.382813-1.40625 0-2.8125.375-4.054688 1.101563-8.640625 5.082031-18.441406 7.769531-28.34375 7.769531-30.878906 0-56-25.128906-56-56 0-10.71875 3.089844-21.175781 8.929688-30.246094 1.40625-2.1875 1.664062-4.921875.6875-7.339844-.976563-2.40625-3.066407-4.191406-5.601563-4.78125-40.046875-9.320312-68.015625-44.527343-68.015625-85.632812 0-48.519531 39.480469-88 88-88 17.953125 0 35.257812 5.414062 50.023438 15.648438 2.046874 1.421874 4.65625 1.808593 7.046874 1.023437 2.378907-.785156 4.257813-2.632813 5.074219-5.007813 15.535157-45.257812 58.078125-75.664062 105.855469-75.664062 61.761719 0 112 50.238281 112 112 0 7.617188-.777344 15.238281-2.296875 22.671875-.472656 2.28125.082031 4.65625 1.503906 6.496094 1.425781 1.839843 3.585938 2.976562 5.914063 3.105469 50.957031 2.679687 90.878906 44.734374 90.878906 95.726562 0 52.9375-43.0625 96-96 96zm0 0"/><path d="m288 200h16v16h-16zm0 0"/><path d="m256 200h16v16h-16zm0 0"/><path d="m224 200h16v16h-16zm0 0"/><path d="m192 200h16v16h-16zm0 0"/><path d="m24 448c-13.230469 0-24 10.769531-24 24s10.769531 24 24 24 24-10.769531 24-24-10.769531-24-24-24zm0 32c-4.40625 0-8-3.585938-8-8s3.59375-8 8-8 8 3.585938 8 8-3.59375 8-8 8zm0 0"/><path d="m88 376c-22.054688 0-40 17.945312-40 40s17.945312 40 40 40 40-17.945312 40-40-17.945312-40-40-40zm0 64c-13.230469 0-24-10.769531-24-24s10.769531-24 24-24 24 10.769531 24 24-10.769531 24-24 24zm0 0"/><path d="m272 32v16c44.113281 0 80 35.886719 80 80h16c0-52.9375-43.0625-96-96-96zm0 0"/></svg>