<?xml version="1.0" encoding="iso-8859-1"?>
<!-- Generator: Adobe Illustrator 19.0.0, SVG Export Plug-In . SVG Version: 6.00 Build 0)  -->
<svg version="1.1" id="Capa_1" xmlns="http://www.w3.org/2000/svg" xmlns:xlink="http://www.w3.org/1999/xlink" x="0px" y="0px"
	 viewBox="0 0 496 496" style="enable-background:new 0 0 496 496;" xml:space="preserve">
<g>
	<g>
		<g>
			<path d="M248,304c13.232,0,24-10.768,24-24s-10.768-24-24-24s-24,10.768-24,24S234.768,304,248,304z M248,272
				c4.408,0,8,3.592,8,8c0,4.408-3.592,8-8,8s-8-3.592-8-8C240,275.592,243.592,272,248,272z"/>
			<path d="M424,208h-8v-40c0-60.728-45.392-110.944-104-118.808V24c0-13.232-10.768-24-24-24h-80c-13.232,0-24,10.768-24,24v25.192
				C125.392,57.056,80,107.272,80,168v40h-8c-13.232,0-24,10.768-24,24v96c0,13.232,10.768,24,24,24h8v16v13.312l19.784,8.328
				L69.392,496h56.752l6.4-24h230.912l6.4,24h56.752l-30.392-106.36L416,381.312V368v-16h8c13.232,0,24-10.768,24-24v-96
				C448,218.768,437.232,208,424,208z M80,336h-8c-4.408,0-8-3.592-8-8v-96c0-4.408,3.592-8,8-8h8V336z M200,24c0-4.408,3.592-8,8-8
				h80c4.408,0,8,3.592,8,8v24h-96V24z M96,272h17.136c-0.672,2.576-1.136,5.224-1.136,8s0.464,5.424,1.136,8H96V272z M96,370.688
				V368h116.864l-36.184,36.656L96,370.688z M235.344,368H240v62.832c-1.44-0.376-2.888-0.728-4.272-1.312l-43.176-18.176
				L235.344,368z M181.384,424h-36.04l3.64-13.64L181.384,424z M113.856,480H90.608l24.032-84.104l19.456,8.192L113.856,480z
				 M136.816,456l4.264-16h78.312l10.128,4.264C235.4,446.744,241.616,448,248,448c6.384,0,12.6-1.256,18.48-3.728L276.624,440
				h78.304l4.264,16H136.816z M255.992,430.832V368h4.664l42.784,43.344l-43.176,18.176
				C258.88,430.104,257.432,430.456,255.992,430.832z M314.624,424l32.392-13.64l3.64,13.64H314.624z M405.392,480h-23.248
				l-20.24-75.912l19.456-8.192L405.392,480z M400,352h-32v16h32v2.688l-80.672,33.968L283.136,368H352v-16H96v-48h27.056
				c5.624,4.92,12.896,8,20.944,8c8.048,0,15.312-3.08,20.944-8h32.536c9.008,18.888,28.24,32,50.52,32
				c22.28,0,41.512-13.112,50.52-32h32.536c5.624,4.92,12.896,8,20.944,8c8.048,0,15.312-3.08,20.944-8H400V352z M128,280
				c0-8.824,7.176-16,16-16c8.824,0,16,7.176,16,16c0,8.824-7.176,16-16,16C135.176,296,128,288.824,128,280z M174.864,272h17.776
				c-0.376,2.624-0.64,5.28-0.64,8c0,2.72,0.264,5.376,0.64,8h-17.776c0.672-2.576,1.136-5.224,1.136-8S175.536,274.576,174.864,272
				z M208,280c0-22.056,17.944-40,40-40c22.056,0,40,17.944,40,40c0,22.056-17.944,40-40,40C225.944,320,208,302.056,208,280z
				 M303.36,272h17.776c-0.672,2.576-1.136,5.224-1.136,8s0.464,5.424,1.136,8H303.36c0.376-2.624,0.64-5.28,0.64-8
				C304,277.28,303.736,274.624,303.36,272z M336,280c0-8.824,7.176-16,16-16c8.824,0,16,7.176,16,16c0,8.824-7.176,16-16,16
				C343.176,296,336,288.824,336,280z M400,288h-17.136c0.672-2.576,1.136-5.224,1.136-8s-0.464-5.424-1.136-8H400V288z M400,256
				h-27.056c-5.632-4.92-12.904-8-20.944-8c-8.04,0-15.312,3.08-20.944,8H298.52c-9.008-18.888-28.24-32-50.52-32
				s-41.512,13.112-50.52,32h-32.536c-5.624-4.92-12.896-8-20.944-8c-8.048,0-15.312,3.08-20.944,8H96v-48h48h32h144h32h48V256z
				 M176,128v64h-16v-72c0-4.408,3.592-8,8-8h160c4.408,0,8,3.592,8,8v72h-16v-64H176z M304,144v48h-48v-48H304z M240,144v48h-48
				v-48H240z M400,192h-48v-72c0-13.232-10.768-24-24-24H168c-13.232,0-24,10.768-24,24v72H96v-24c0-57.344,46.656-104,104-104h96
				c57.344,0,104,46.656,104,104V192z M432,328c0,4.408-3.592,8-8,8h-8V224h8c4.408,0,8,3.592,8,8V328z"/>
		</g>
	</g>
</g>
<g>
</g>
<g>
</g>
<g>
</g>
<g>
</g>
<g>
</g>
<g>
</g>
<g>
</g>
<g>
</g>
<g>
</g>
<g>
</g>
<g>
</g>
<g>
</g>
<g>
</g>
<g>
</g>
<g>
</g>
</svg>
