<svg id="Capa_1" data-name="Capa 1" xmlns="http://www.w3.org/2000/svg" viewBox="0 0 469.33 469.33"><title>whitenoise</title><path d="M10.67,298.67A10.67,10.67,0,0,1,0,288V181.33a10.67,10.67,0,0,1,21.33,0V288A10.67,10.67,0,0,1,10.67,298.67Z" transform="translate(0 0)" style="fill:#f44336"/><path d="M74.67,384A10.67,10.67,0,0,1,64,373.33V96a10.67,10.67,0,1,1,21.33,0V373.33A10.67,10.67,0,0,1,74.67,384Z" transform="translate(0 0)" style="fill:#f44336"/><path d="M138.67,469.33A10.67,10.67,0,0,1,128,458.67v-448a10.67,10.67,0,1,1,21.33,0v448A10.66,10.66,0,0,1,138.67,469.33Z" transform="translate(0 0)" style="fill:#f44336"/><path d="M202.67,448A10.67,10.67,0,0,1,192,437.33V32a10.67,10.67,0,1,1,21.33,0V437.33A10.67,10.67,0,0,1,202.67,448Z" transform="translate(0 0)" style="fill:#f44336"/><path d="M266.67,362.67A10.67,10.67,0,0,1,256,352V117.33a10.67,10.67,0,0,1,21.33,0V352A10.67,10.67,0,0,1,266.67,362.67Z" transform="translate(0 0)" style="fill:#f44336"/><path d="M330.67,448A10.67,10.67,0,0,1,320,437.33V32a10.67,10.67,0,1,1,21.33,0V437.33A10.67,10.67,0,0,1,330.67,448Z" transform="translate(0 0)" style="fill:#f44336"/><path d="M394.67,362.67A10.67,10.67,0,0,1,384,352V117.33a10.67,10.67,0,0,1,21.33,0V352A10.67,10.67,0,0,1,394.67,362.67Z" transform="translate(0 0)" style="fill:#f44336"/><path d="M458.67,298.67A10.67,10.67,0,0,1,448,288V181.33a10.67,10.67,0,0,1,21.33,0V288A10.67,10.67,0,0,1,458.67,298.67Z" transform="translate(0 0)" style="fill:#f44336"/><path d="M10.67,298.67A10.67,10.67,0,0,1,0,288V181.33a10.67,10.67,0,0,1,21.33,0V288A10.67,10.67,0,0,1,10.67,298.67Z" transform="translate(0 0)"/><path d="M74.67,384A10.67,10.67,0,0,1,64,373.33V96a10.67,10.67,0,1,1,21.33,0V373.33A10.67,10.67,0,0,1,74.67,384Z" transform="translate(0 0)"/><path d="M138.67,469.33A10.67,10.67,0,0,1,128,458.67v-448a10.67,10.67,0,1,1,21.33,0v448A10.66,10.66,0,0,1,138.67,469.33Z" transform="translate(0 0)"/><path d="M202.67,448A10.67,10.67,0,0,1,192,437.33V32a10.67,10.67,0,1,1,21.33,0V437.33A10.67,10.67,0,0,1,202.67,448Z" transform="translate(0 0)"/><path d="M266.67,362.67A10.67,10.67,0,0,1,256,352V117.33a10.67,10.67,0,0,1,21.33,0V352A10.67,10.67,0,0,1,266.67,362.67Z" transform="translate(0 0)"/><path d="M330.67,448A10.67,10.67,0,0,1,320,437.33V32a10.67,10.67,0,1,1,21.33,0V437.33A10.67,10.67,0,0,1,330.67,448Z" transform="translate(0 0)"/><path d="M394.67,362.67A10.67,10.67,0,0,1,384,352V117.33a10.67,10.67,0,0,1,21.33,0V352A10.67,10.67,0,0,1,394.67,362.67Z" transform="translate(0 0)"/><path d="M458.67,298.67A10.67,10.67,0,0,1,448,288V181.33a10.67,10.67,0,0,1,21.33,0V288A10.67,10.67,0,0,1,458.67,298.67Z" transform="translate(0 0)"/><path d="M395.85,17.29h10.58l8.22,30.93,1.18,5.7h.59l1.56-5.7L425.6,24.4h9.32l7.7,23.82,1.48,5.63h.59l1.11-5.63,7.7-30.93h10.58L450,70.28H440.4l-8.29-25.53-1.55-5.85H430l-1.55,5.85-8.29,25.53H410.5Z" transform="translate(0 0)"/></svg>